# xmcd
# Track frame offsets:
# 150
# 10905
# 23813
# 38282
# 49693
# 62296
# 74454
# 85426
# 96093
# 105688
# 116758
# 130091
# 142906
# 154631
# 166443
#
# Disc length: 2412 seconds
# Revision: 0
# Processed by: cddbd v1.5.1PL0 Copyright (c) Steve Scherf et al.
# Submitted via: VisiTrax 2.9.10.228 - For more info visit www.synapsa.com
#
DISCID=b8096a0f
DTITLE=Lynn, Loretta - CB90073
DYEAR=1900
DGENRE=Karaoke
TTITLE0=You Ain't Woman Enough To Take My Man
TTITLE1=Blue Kentucky Girl
TTITLE2=Coal Miner's Daughter
TTITLE3=Honky Tonk Girl
TTITLE4=Love Is The Foundation
TTITLE5=Out Of My Head And Back In My Bed
TTITLE6=They Don't Make 'Em Like My Daddy
TTITLE7=Trouble In Paradise
TTITLE8=Don't Come Home A Drinkin'
TTITLE9=You're Lookin' At Country
TTITLE10=One's On The Way
TTITLE11=Rated X
TTITLE12=You've Just Stepped In From Stepping Out
TTITLE13=Fist City
TTITLE14=Somebody Somewhere Don't Know What
EXTD=
EXTT0=
EXTT1=
EXTT2=
EXTT3=
EXTT4=
EXTT5=
EXTT6=
EXTT7=
EXTT8=
EXTT9=
EXTT10=
EXTT11=
EXTT12=
EXTT13=
EXTT14=
PLAYORDER=
